<svg width="371" height="207" viewBox="0 0 371 207" fill="none" xmlns="http://www.w3.org/2000/svg">
<path d="M36.0088 96.0004C26.2886 96.0004 18.9985 93.6808 14.1384 89.0416C9.27834 84.3288 6.8483 77.591 6.8483 68.8281V48.1728C6.8483 39.3362 9.27834 32.5984 14.1384 27.9592C18.9985 23.3201 26.2886 21.0005 36.0088 21.0005C45.6553 21.0005 52.9086 23.3201 57.7687 27.9592C62.6288 32.5984 65.0589 39.3362 65.0589 48.1728V68.8281C65.0589 77.591 62.6288 84.3288 57.7687 89.0416C52.9086 93.6808 45.6553 96.0004 36.0088 96.0004ZM36.0088 84.4025C41.2371 84.4025 45.1767 83.0402 47.8276 80.3156C50.4786 77.5174 51.8041 73.4673 51.8041 68.1654V48.8355C51.8041 43.5336 50.4786 39.5203 47.8276 36.7957C45.1767 33.9975 41.2371 32.5984 36.0088 32.5984C30.7805 32.5984 26.8041 33.9975 24.0795 36.7957C21.4286 39.5203 20.1031 43.5336 20.1031 48.8355V68.1654C20.1031 73.4673 21.4286 77.5174 24.0795 80.3156C26.8041 83.0402 30.7805 84.4025 36.0088 84.4025ZM106.741 96.0004C104.164 96.0004 101.366 95.6322 98.3468 94.8958C95.4013 94.2331 92.9344 93.3126 90.9462 92.1344L90.7253 81.7515C92.6399 82.8561 94.7017 83.7029 96.9109 84.292C99.12 84.8075 101.182 85.0652 103.096 85.0652C106.631 85.0652 109.208 83.9975 110.828 81.862C112.448 79.7265 113.258 76.5969 113.258 72.4732V60.7648C113.258 57.1566 112.632 54.5056 111.381 52.8119C110.129 51.1183 108.177 50.2714 105.526 50.2714C103.244 50.2714 100.924 50.971 98.5677 52.3701C96.2113 53.7692 93.4131 55.9415 90.173 58.887L89.6207 49.1669C91.7562 47.105 93.8917 45.3377 96.0272 43.865C98.1627 42.3186 100.372 41.1404 102.655 40.3304C104.937 39.4467 107.404 39.0049 110.055 39.0049C115.431 39.0049 119.481 40.6249 122.205 43.865C124.93 47.0314 126.292 51.9283 126.292 58.5557V73.6882C126.292 81.1992 124.599 86.7957 121.211 90.4776C117.898 94.1595 113.074 96.0004 106.741 96.0004ZM80.7842 115.109C79.9742 115.109 79.5692 114.668 79.5692 113.784V53.4747C79.5692 51.5601 79.4956 49.5719 79.3483 47.51C79.201 45.4482 79.0169 43.5336 78.796 41.7663C78.7224 40.809 79.1642 40.3304 80.1215 40.3304H89.3998C90.2098 40.3304 90.6885 40.7354 90.8358 41.5454C90.983 42.1345 91.1303 42.9077 91.2776 43.865C91.4249 44.7486 91.5353 45.6691 91.609 46.6264C91.6826 47.5837 91.7194 48.3569 91.7194 48.946L92.6031 55.1315V113.784C92.6031 114.668 92.1612 115.109 91.2776 115.109H80.7842ZM162.195 96.0004C154.242 96.0004 148.277 94.2699 144.301 90.809C140.325 87.2743 138.336 82.0461 138.336 75.1241V61.4275C138.336 54.0638 140.288 48.5041 144.191 44.7486C148.167 40.9195 154.132 39.0049 162.084 39.0049C169.89 39.0049 175.781 40.8458 179.758 44.5277C183.734 48.2096 185.722 53.5851 185.722 60.6543V69.2699C185.722 70.1536 185.28 70.5954 184.397 70.5954H151.26V73.9091C151.26 77.9592 152.107 80.9415 153.8 82.8561C155.568 84.697 158.403 85.6175 162.305 85.6175C165.325 85.6175 167.644 85.1389 169.264 84.1816C170.958 83.2243 171.805 81.7883 171.805 79.8738C171.805 78.9901 172.246 78.5483 173.13 78.5483H183.292C184.102 78.5483 184.544 78.9533 184.618 79.7633C184.839 85.0652 182.998 89.1153 179.095 91.9135C175.266 94.6381 169.632 96.0004 162.195 96.0004ZM151.26 61.7589H172.909V61.2066C172.909 57.1566 172.026 54.1742 170.258 52.2597C168.491 50.3451 165.803 49.3878 162.195 49.3878C158.439 49.3878 155.678 50.3819 153.911 52.3701C152.143 54.2847 151.26 57.267 151.26 61.3171V61.7589ZM234.795 94.6749C233.911 94.6749 233.47 94.2331 233.47 93.3494V59.3289C233.47 56.2361 232.844 53.9533 231.592 52.4806C230.34 51.0078 228.425 50.2714 225.848 50.2714C223.271 50.2714 220.73 51.0446 218.227 52.591C215.797 54.0638 212.998 56.3834 209.832 59.5498L209.39 49.9401C211.526 47.6573 213.661 45.7059 215.797 44.0859C218.006 42.4658 220.288 41.214 222.645 40.3304C225.001 39.4467 227.579 39.0049 230.377 39.0049C235.679 39.0049 239.692 40.5144 242.417 43.5336C245.141 46.4791 246.503 51.0446 246.503 57.2302V93.3494C246.503 94.2331 246.062 94.6749 245.178 94.6749H234.795ZM200.112 94.6749C199.302 94.6749 198.897 94.2331 198.897 93.3494V54.1374C198.897 52.0756 198.786 49.9032 198.565 47.6205C198.418 45.3377 198.271 43.4231 198.123 41.8767C197.976 40.8458 198.418 40.3304 199.449 40.3304H208.727C209.464 40.3304 209.942 40.7354 210.163 41.5454C210.31 42.1345 210.458 43.0181 210.605 44.1963C210.752 45.3009 210.9 46.4791 211.047 47.7309C211.194 48.9828 211.268 50.0873 211.268 51.0446L211.931 55.4629V93.3494C211.931 94.2331 211.489 94.6749 210.605 94.6749H200.112Z" fill="#E5E5E5"/>
<path d="M76.9331 198.228C75.9758 198.228 75.6076 197.749 75.8285 196.792L99.6871 126.873C99.908 126.21 100.387 125.879 101.123 125.879H115.261C116.071 125.879 116.587 126.21 116.808 126.873L140.777 196.792C141.071 197.749 140.74 198.228 139.783 198.228H128.074C127.338 198.228 126.859 197.896 126.638 197.234L112.39 151.836C111.653 149.406 110.917 147.013 110.18 144.656C109.518 142.226 108.855 139.796 108.192 137.366H107.971C107.309 139.723 106.609 142.116 105.873 144.546C105.21 146.902 104.51 149.259 103.774 151.615L89.8565 197.123C89.6356 197.86 89.1201 198.228 88.3101 198.228H76.9331ZM92.0656 183.095L94.6061 172.271H121.447L124.098 183.095H92.0656ZM168.415 199.553C164.144 199.553 160.72 198.891 158.143 197.565C155.639 196.24 153.798 194.178 152.62 191.379C151.515 188.581 150.963 185.01 150.963 180.665V154.818H142.9C142.016 154.818 141.574 154.377 141.574 153.493V145.209C141.574 144.325 142.016 143.883 142.9 143.883H151.405L152.841 130.628C152.988 129.818 153.467 129.413 154.277 129.413H162.671C163.555 129.413 163.997 129.855 163.997 130.739V143.883H179.129C180.013 143.883 180.455 144.325 180.455 145.209V153.493C180.455 154.377 180.013 154.818 179.129 154.818H163.997V180.002C163.997 182.948 164.549 185.083 165.654 186.409C166.758 187.734 168.599 188.397 171.177 188.397C172.502 188.397 173.828 188.25 175.153 187.955C176.552 187.661 177.841 187.256 179.019 186.74C180.05 186.372 180.565 186.703 180.565 187.734V196.24C180.565 196.976 180.234 197.455 179.571 197.676C178.099 198.265 176.405 198.706 174.49 199.001C172.649 199.369 170.624 199.553 168.415 199.553ZM212.677 199.553C204.724 199.553 198.76 197.823 194.783 194.362C190.807 190.827 188.819 185.599 188.819 178.677V164.98C188.819 157.617 190.77 152.057 194.673 148.301C198.649 144.472 204.614 142.558 212.567 142.558C220.372 142.558 226.263 144.399 230.24 148.081C234.216 151.762 236.204 157.138 236.204 164.207V172.823C236.204 173.706 235.763 174.148 234.879 174.148H201.742V177.462C201.742 181.512 202.589 184.494 204.282 186.409C206.05 188.25 208.885 189.17 212.788 189.17C215.807 189.17 218.126 188.692 219.746 187.734C221.44 186.777 222.287 185.341 222.287 183.427C222.287 182.543 222.729 182.101 223.612 182.101H233.774C234.584 182.101 235.026 182.506 235.1 183.316C235.321 188.618 233.48 192.668 229.577 195.466C225.748 198.191 220.115 199.553 212.677 199.553ZM201.742 165.312H223.391V164.759C223.391 160.709 222.508 157.727 220.74 155.813C218.973 153.898 216.285 152.941 212.677 152.941C208.922 152.941 206.16 153.935 204.393 155.923C202.626 157.838 201.742 160.82 201.742 164.87V165.312ZM250.594 198.228C249.784 198.228 249.379 197.786 249.379 196.902V124.112C249.379 123.228 249.784 122.786 250.594 122.786H261.087C261.971 122.786 262.413 123.228 262.413 124.112V196.902C262.413 197.786 261.971 198.228 261.087 198.228H250.594ZM280.378 198.228C279.568 198.228 279.163 197.786 279.163 196.902V145.209C279.163 144.325 279.568 143.883 280.378 143.883H290.872C291.755 143.883 292.197 144.325 292.197 145.209V196.902C292.197 197.786 291.755 198.228 290.872 198.228H280.378ZM285.68 136.041C283.177 136.041 281.262 135.378 279.936 134.053C278.685 132.727 278.059 131.033 278.059 128.972V127.315C278.059 125.179 278.685 123.486 279.936 122.234C281.262 120.908 283.177 120.246 285.68 120.246C288.184 120.246 290.062 120.908 291.313 122.234C292.565 123.486 293.191 125.179 293.191 127.315V128.972C293.191 131.033 292.565 132.727 291.313 134.053C290.062 135.378 288.184 136.041 285.68 136.041ZM329.765 199.553C321.96 199.553 315.921 197.712 311.65 194.03C307.453 190.275 305.354 184.605 305.354 177.02V165.091C305.354 157.58 307.453 151.947 311.65 148.191C315.848 144.435 321.886 142.558 329.765 142.558C337.571 142.558 343.572 144.435 347.77 148.191C351.967 151.947 354.066 157.58 354.066 165.091V177.02C354.066 184.605 351.967 190.275 347.77 194.03C343.646 197.712 337.645 199.553 329.765 199.553ZM329.765 188.397C333.742 188.397 336.614 187.403 338.381 185.415C340.148 183.353 341.032 180.15 341.032 175.805V166.306C341.032 161.961 340.148 158.795 338.381 156.807C336.614 154.745 333.742 153.714 329.765 153.714C325.789 153.714 322.88 154.745 321.039 156.807C319.272 158.795 318.388 161.961 318.388 166.306V175.805C318.388 180.15 319.272 183.353 321.039 185.415C322.88 187.403 325.789 188.397 329.765 188.397Z" fill="#E5E5E5"/>
<path fill-rule="evenodd" clip-rule="evenodd" d="M343.325 8.62942C344.944 7.01165 347.138 6.10284 349.426 6.10284C351.715 6.10284 353.909 7.01165 355.527 8.62942L362.37 15.4725C363.988 17.0908 364.897 19.2853 364.897 21.5735C364.897 23.8617 363.988 26.0563 362.37 27.6745L355.527 34.5176L336.482 15.4725L343.325 8.62942ZM330.381 21.5735L308.808 43.1471C307.189 44.765 306.28 46.9596 306.279 49.248V56.0912C306.279 58.3798 307.188 60.5748 308.807 62.1931C310.425 63.8114 312.62 64.7206 314.909 64.7206H321.752C324.04 64.7201 326.235 63.8106 327.853 62.1922L349.426 40.6186L330.381 21.5735Z" fill="#E5E5E5"/>
<path d="M293.335 60.4059H289.021C286.732 60.4059 284.537 61.3151 282.919 62.9334C281.3 64.5517 280.391 66.7466 280.391 69.0353C280.391 71.324 281.3 73.5189 282.919 75.1372C284.537 76.7555 286.732 77.6647 289.021 77.6647H349.426C351.715 77.6647 353.91 78.5739 355.528 80.1922C357.147 81.8105 358.056 84.0054 358.056 86.2941C358.056 88.5828 357.147 90.7777 355.528 92.396C353.91 94.0144 351.715 94.9235 349.426 94.9235H332.168" stroke="#E5E5E5" stroke-width="4.60235" stroke-linecap="round" stroke-linejoin="round"/>
</svg>
